<?xml version="1.0" encoding="UTF-8"?>
<svg width="588px" height="517px" viewBox="0 0 588 517" version="1.1" xmlns="http://www.w3.org/2000/svg" xmlns:xlink="http://www.w3.org/1999/xlink">
    <!-- Generator: Sketch 43 (38999) - http://www.bohemiancoding.com/sketch -->
    <title>Group 2</title>
    <desc>Created with Sketch.</desc>
    <defs></defs>
    <g id="Page-1" stroke="none" stroke-width="1" fill="none" fill-rule="evenodd">
        <g id="Group-2" fill-rule="nonzero">
            <g id="logo" fill="#4D4D4F">
                <g id="Group">
                    <path d="M291.874699,86.5421769 C376.178313,86.5421769 445.959036,147.148299 460.481928,227.247619 L427.539759,227.247619 L507.592771,306.283673 L588,227.247619 L547.973494,227.247619 C532.742169,99.3013605 423.99759,0.0632653061 291.874699,0.0632653061 C184.901205,0.0632653061 93.1590361,65.2768707 53.8409639,158.135374 L134.248193,189.678912 C160.814458,129.072789 221.385542,86.5421769 291.874699,86.5421769 Z" id="Shape"></path>
                    <path d="M291.874699,429.976871 C209.342169,429.976871 140.624096,371.497279 123.975904,293.878912 L160.460241,293.878912 L80.4072289,214.842857 L0,293.878912 L36.4843373,293.878912 C53.8409639,419.698639 161.522892,516.455782 291.874699,516.455782 C398.493976,516.455782 490.236145,451.596599 529.554217,359.092517 L449.146988,327.54898 C422.226506,387.80068 362.009639,429.976871 291.874699,429.976871 Z" id="Shape"></path>
                </g>
            </g>
            <g id="miscellaneous" transform="translate(185.000000, 104.000000)">
                <rect id="Rectangle-path" fill="#5A8BB0" x="181.548834" y="126.823812" width="36.274116" height="126.823813"></rect>
                <g id="Group" transform="translate(0.000000, 126.328125)" fill="#93C7EF">
                    <rect id="Rectangle-path" x="0.177049724" y="0.4956875" width="36.274116" height="126.823813"></rect>
                    <path d="M59.1225635,82.0248516 L59.1225635,131.848664 C59.1225635,159.366539 81.4543149,181.671875 109,181.671875 C136.545685,181.671875 158.877436,159.366539 158.877436,131.848062 L158.877436,82.02425 L59.1225635,82.02425 L59.1225635,82.0248516 Z" id="Shape"></path>
                </g>
                <path d="M109,308 C136.545685,308 158.877436,285.694664 158.877436,258.176187 L158.877436,208.352375 L109,208.352375" id="Shape" fill="#5A8BB0"></path>
                <path d="M199.685591,271.764883 L199.685591,90.5880937 C199.685591,40.5573438 159.085801,0 109,0 C58.9141989,0 18.3144088,40.5573438 18.3144088,90.5880937 L18.3144088,271.764281 L199.685591,271.764281 L199.685591,271.764883 Z" id="Shape" fill="#CCE9F9"></path>
                <path d="M199.685591,271.764883 L199.685591,90.5880937 C199.685591,40.5573438 159.085801,0 109,0 L109,271.764883 L199.685591,271.764883 Z" id="Shape" fill="#93C7EF"></path>
                <g id="Group" transform="translate(63.232044, 72.187500)" fill="#3C5D76">
                    <rect id="Rectangle-path" x="0.425160221" y="0.283335937" width="90.6855912" height="27.1761875"></rect>
                    <path d="M18.5625193,54.6363125 C18.5625193,69.6446953 30.7440221,81.8125 45.7679558,81.8125 L45.7679558,81.8125 C60.7918895,81.8125 72.9733923,69.6446953 72.9733923,54.6363125 L18.5625193,54.6363125 Z" id="Shape"></path>
                </g>
                <g id="Group" transform="translate(109.000000, 72.187500)" fill="#1E2E3B">
                    <rect id="Rectangle-path" x="0" y="0.283335937" width="45.3427956" height="27.1761875"></rect>
                    <path d="M0,54.6363125 L0,81.8125 L0,81.8125 C15.0239337,81.8125 27.2054365,69.6446953 27.2054365,54.6363125 L0,54.6363125 Z" id="Shape"></path>
                </g>
                <ellipse id="Oval" fill="#3C5D76" cx="54.5885249" cy="212.882141" rx="13.6027182" ry="13.5880937"></ellipse>
                <g id="Group" transform="translate(95.149171, 199.117188)" fill="#1E2E3B">
                    <ellipse id="Oval" cx="13.8508287" cy="13.7649531" rx="13.6027182" ry="13.5880938"></ellipse>
                    <ellipse id="Oval" cx="68.2623039" cy="13.7649531" rx="13.6027182" ry="13.5880938"></ellipse>
                </g>
            </g>
        </g>
    </g>
</svg>