<?xml version="1.0" encoding="UTF-8"?>
<svg width="600px" height="600px" viewBox="0 0 600 600" version="1.1" xmlns="http://www.w3.org/2000/svg" xmlns:xlink="http://www.w3.org/1999/xlink">
    <!-- Generator: Sketch 43 (38999) - http://www.bohemiancoding.com/sketch -->
    <title>Artboard</title>
    <desc>Created with Sketch.</desc>
    <defs></defs>
    <g id="Page-1" stroke="none" stroke-width="1" fill="none" fill-rule="evenodd">
        <g id="Artboard" fill-rule="nonzero" fill="#4D4D4F">
            <g id="logo" transform="translate(6.000000, 42.000000)">
                <g id="Group">
                    <g>
                        <path d="M291.874699,86.5421769 C376.178313,86.5421769 445.959036,147.148299 460.481928,227.247619 L427.539759,227.247619 L507.592771,306.283673 L588,227.247619 L547.973494,227.247619 C532.742169,99.3013605 423.99759,0.0632653061 291.874699,0.0632653061 C184.901205,0.0632653061 93.1590361,65.2768707 53.8409639,158.135374 L134.248193,189.678912 C160.814458,129.072789 221.385542,86.5421769 291.874699,86.5421769 Z" id="Shape"></path>
                        <path d="M291.874699,429.976871 C209.342169,429.976871 140.624096,371.497279 123.975904,293.878912 L160.460241,293.878912 L80.4072289,214.842857 L0,293.878912 L36.4843373,293.878912 C53.8409639,419.698639 161.522892,516.455782 291.874699,516.455782 C398.493976,516.455782 490.236145,451.596599 529.554217,359.092517 L449.146988,327.54898 C422.226506,387.80068 362.009639,429.976871 291.874699,429.976871 Z" id="Shape"></path>
                    </g>
                </g>
            </g>
        </g>
    </g>
</svg>