<?xml version="1.0" encoding="UTF-8"?>
<svg width="600px" height="600px" viewBox="0 0 600 600" version="1.1" xmlns="http://www.w3.org/2000/svg" xmlns:xlink="http://www.w3.org/1999/xlink">
    <!-- Generator: Sketch 43 (38999) - http://www.bohemiancoding.com/sketch -->
    <title>Artboard</title>
    <desc>Created with Sketch.</desc>
    <defs></defs>
    <g id="Page-1" stroke="none" stroke-width="1" fill="none" fill-rule="evenodd">
        <g id="Artboard" fill-rule="nonzero">
            <g id="logo" transform="translate(191.000000, 146.000000)">
                <g id="miscellaneous">
                    <rect id="Rectangle-path" fill="#5A8BB0" x="181.548834" y="126.823812" width="36.274116" height="126.823813"></rect>
                    <g id="Group" transform="translate(0.000000, 126.328125)" fill="#93C7EF">
                        <rect id="Rectangle-path" x="0.177049724" y="0.4956875" width="36.274116" height="126.823813"></rect>
                        <path d="M59.1225635,82.0248516 L59.1225635,131.848664 C59.1225635,159.366539 81.4543149,181.671875 109,181.671875 C136.545685,181.671875 158.877436,159.366539 158.877436,131.848062 L158.877436,82.02425 L59.1225635,82.02425 L59.1225635,82.0248516 Z" id="Shape"></path>
                    </g>
                    <path d="M109,308 C136.545685,308 158.877436,285.694664 158.877436,258.176187 L158.877436,208.352375 L109,208.352375" id="Shape" fill="#5A8BB0"></path>
                    <path d="M199.685591,271.764883 L199.685591,90.5880937 C199.685591,40.5573438 159.085801,0 109,0 C58.9141989,0 18.3144088,40.5573438 18.3144088,90.5880937 L18.3144088,271.764281 L199.685591,271.764281 L199.685591,271.764883 Z" id="Shape" fill="#CCE9F9"></path>
                    <path d="M199.685591,271.764883 L199.685591,90.5880937 C199.685591,40.5573438 159.085801,0 109,0 L109,271.764883 L199.685591,271.764883 Z" id="Shape" fill="#93C7EF"></path>
                    <g id="Group" transform="translate(63.232044, 72.187500)" fill="#3C5D76">
                        <rect id="Rectangle-path" x="0.425160221" y="0.283335937" width="90.6855912" height="27.1761875"></rect>
                        <path d="M18.5625193,54.6363125 C18.5625193,69.6446953 30.7440221,81.8125 45.7679558,81.8125 L45.7679558,81.8125 C60.7918895,81.8125 72.9733923,69.6446953 72.9733923,54.6363125 L18.5625193,54.6363125 Z" id="Shape"></path>
                    </g>
                    <g id="Group" transform="translate(109.000000, 72.187500)" fill="#1E2E3B">
                        <rect id="Rectangle-path" x="0" y="0.283335937" width="45.3427956" height="27.1761875"></rect>
                        <path d="M0,54.6363125 L0,81.8125 L0,81.8125 C15.0239337,81.8125 27.2054365,69.6446953 27.2054365,54.6363125 L0,54.6363125 Z" id="Shape"></path>
                    </g>
                    <ellipse id="Oval" fill="#3C5D76" cx="54.5885249" cy="212.882141" rx="13.6027182" ry="13.5880937"></ellipse>
                    <g id="Group" transform="translate(95.149171, 199.117188)" fill="#1E2E3B">
                        <ellipse id="Oval" cx="13.8508287" cy="13.7649531" rx="13.6027182" ry="13.5880938"></ellipse>
                        <ellipse id="Oval" cx="68.2623039" cy="13.7649531" rx="13.6027182" ry="13.5880938"></ellipse>
                    </g>
                </g>
            </g>
        </g>
    </g>
</svg>